<?xml version="1.0" encoding="utf-8"?>
<svg viewBox="152.317 150.494 52.903 63.272" xmlns="http://www.w3.org/2000/svg">
  <path d="M 188.379 185.105 L 187.212 177.895 L 189.547 173.983 L 193.898 171.299 L 194.836 178.585 L 191.557 186.946 L 188.379 185.105 Z" fill="#F4B34F" style="" transform="matrix(0.999829, 0.01847, -0.01847, 0.999829, 3.341007, -3.497687)"/>
  <path d="M 178.913 165.322 L 167.721 168.314 L 166.731 163.02 L 173.382 159.799 L 186.512 158.035 L 190.36 164.248 L 198.265 181.124 L 199.692 190.635 L 193.723 186.953 L 193.556 173.76 L 186.622 166.703 L 178.913 165.322 Z" fill="#F4B34F" style="" transform="matrix(0.999829, 0.01847, -0.01847, 0.999829, 3.251248, -3.354205)"/>
  <path d="M 161.446 186.501 L 162.225 193.405 L 161.114 196.704 L 163.512 197.854 L 165.184 202.38 L 169.064 205.065 L 177.763 205.679 L 189.399 201.229 L 184.225 181.362 L 181.816 173.307 L 178.887 172.77 L 178.924 175.685 L 177.423 178.677 L 172.59 179.675 L 170.256 177.603 L 167.519 180.135 L 165.737 179.138 L 164.473 182.59 L 162.089 182.59 L 161.446 186.501 Z" fill="#F4B34F" style="" transform="matrix(0.999829, 0.01847, -0.01847, 0.999829, 3.524903, -3.204735)"/>
  <path d="M 171.303 179.049 L 170.047 177.056 L 170.027 175.521 L 169.995 172.99 L 178.664 171.149 L 179.542 173.68 L 178.225 179.049 L 174.61 179.049 L 171.303 179.049 Z" fill="#FF4545" style="" transform="matrix(0.999829, 0.01847, -0.01847, 0.999829, 3.263919, -3.198132)"/>
  <path d="M 164.422 181.599 L 162.747 182.98 L 161.513 182.597 L 159.454 177.994 L 160.816 176.229 L 165.72 174.695 L 166.746 176.766 L 166.47 179.298 L 164.422 181.599 Z" fill="#FF4545" style="" transform="matrix(0.999829, 0.01847, -0.01847, 0.999829, 3.330979, -2.981975)"/>
  <path d="M 165.685 175.314 L 161.164 176.618 L 161.866 171.326 L 164.857 170.636 L 170.274 167.107 L 177.707 164.959 L 182.524 168.718 L 180.882 172.706 L 178.25 171.326 L 169.586 173.55 L 170.404 177.385 L 168.29 180.607 L 166.506 179.457 L 167.164 176.618 L 165.685 175.314 Z" fill="#F4B34F" style="" transform="matrix(0.999829, 0.01847, -0.01847, 0.999829, 3.220643, -3.144511)"/>
  <path d="M 176.49 164.514 L 175.793 166.82 L 176.068 167.092 L 171.716 163.744 L 172.388 163.156 L 176.49 164.514 Z" fill="white" style="" transform="matrix(0.999829, 0.01847, -0.01847, 0.999829, 3.079566, -3.187541)"/>
  <path fill-rule="evenodd" clip-rule="evenodd" d="M 176.793 151.549 C 175.37 151.89 174.544 152.178 173.674 152.64 C 171.799 153.633 170.157 155.196 168.691 157.379 C 168.179 158.142 167.559 159.338 166.844 160.943 C 166.455 161.815 165.72 163.982 165.724 164.247 C 165.725 164.317 165.598 164.45 165.443 164.542 C 164.528 165.085 162.812 166.779 162.235 167.709 C 161.403 169.05 161.069 170.091 160.995 171.572 C 160.945 172.557 160.933 172.606 160.641 172.952 C 160.165 173.517 159.982 174.145 159.995 175.164 C 160.008 176.218 159.914 176.421 159.219 176.845 C 158.606 177.218 158.466 177.485 158.476 178.263 C 158.484 178.926 158.639 179.343 159.003 179.68 C 159.139 179.807 159.231 179.992 159.233 180.149 C 159.234 180.292 159.273 180.48 159.318 180.567 C 159.363 180.654 159.455 180.89 159.522 181.091 C 159.716 181.681 160.191 182.325 160.944 183.021 C 161.813 183.824 161.862 183.99 161.54 185.021 C 161.064 186.546 160.937 187.487 160.96 189.315 C 160.979 190.752 161.05 191.378 161.355 192.742 C 161.559 193.657 161.552 193.8 161.274 194.387 C 160.772 195.451 160.695 195.941 160.932 196.58 C 161.159 197.192 161.426 197.51 162.069 197.927 C 162.938 198.492 163.205 198.88 163.229 199.615 C 163.236 199.801 163.279 200.048 163.325 200.163 C 163.372 200.278 163.467 200.558 163.537 200.784 C 164.193 202.902 166.308 204.896 168.721 205.671 C 168.999 205.76 169.43 205.91 169.678 206.004 C 169.925 206.098 170.169 206.175 170.221 206.175 C 170.272 206.175 170.748 206.596 171.279 207.112 C 172.168 207.975 173.071 208.645 173.758 208.954 C 174.653 209.355 174.945 209.465 175.692 209.683 C 176.148 209.816 176.686 209.968 176.889 210.021 C 177.091 210.074 177.383 210.155 177.539 210.202 C 177.695 210.249 177.909 210.287 178.016 210.287 C 178.123 210.287 178.237 210.328 178.268 210.379 C 178.3 210.429 178.414 210.47 178.521 210.47 C 178.628 210.47 178.842 210.51 178.998 210.56 C 181.25 211.275 182.355 211.725 183.214 212.278 C 183.401 212.399 183.596 212.472 183.646 212.441 C 183.696 212.41 183.762 212.19 183.792 211.953 C 183.926 210.879 184.228 209.444 184.441 208.871 C 184.478 208.77 184.599 208.441 184.71 208.14 C 184.947 207.497 185.429 206.68 185.761 206.361 C 185.959 206.17 185.985 206.163 185.926 206.315 C 185.604 207.14 185.41 208.728 185.511 209.701 C 185.549 210.074 185.606 210.378 185.637 210.377 C 185.742 210.375 185.888 210.242 185.938 210.104 C 185.964 210.029 186.24 209.618 186.552 209.191 C 187.248 208.234 188.796 206.67 190.125 205.581 C 190.673 205.131 191.143 204.74 191.168 204.712 C 191.193 204.684 191.805 204.192 192.529 203.618 C 193.253 203.045 193.865 202.553 193.891 202.525 C 193.915 202.497 194.18 202.268 194.479 202.017 C 195.696 200.998 197.43 199.298 198.16 198.408 C 198.988 197.399 199.837 195.959 200.394 194.615 C 200.585 194.159 200.757 193.485 200.882 192.713 C 201.051 191.672 200.963 189.006 200.729 188.082 C 200.501 187.184 200.284 186.474 200.099 186.026 C 200.058 185.926 199.969 185.699 199.903 185.524 C 199.836 185.348 199.626 184.854 199.436 184.427 L 199.089 183.65 L 199.153 182.599 C 199.281 180.499 199.022 177.685 198.517 175.701 C 198.021 173.749 197.52 172.422 196.535 170.446 C 194.899 167.164 192.45 164.31 190.033 162.868 C 189.76 162.705 189.741 162.657 189.675 161.979 C 189.574 160.947 189.409 160.221 189.01 159.069 C 188.812 158.499 187.969 156.82 187.78 156.623 C 187.721 156.561 187.547 156.326 187.392 156.1 C 187.238 155.874 186.757 155.324 186.322 154.877 C 184.571 153.073 182.884 152.166 180.115 151.538 C 179.588 151.419 177.306 151.426 176.793 151.549 Z M 187.943 161.331 C 188.218 161.874 188.365 162.616 188.256 162.911 C 188.111 163.304 188.152 163.382 188.656 163.685 C 189.215 164.022 189.697 164.486 189.794 164.784 L 189.863 164.99 L 189.583 164.794 C 189.43 164.685 189.259 164.597 189.204 164.597 C 189.149 164.597 189.103 164.556 189.103 164.506 C 189.102 164.455 189.001 164.414 188.878 164.414 C 188.755 164.414 188.628 164.373 188.595 164.323 C 188.564 164.273 188.458 164.232 188.36 164.232 C 188.173 164.232 188.118 164.49 188.271 164.647 C 188.354 164.733 188.658 165.644 188.66 165.813 C 188.661 165.861 188.41 165.631 188.103 165.304 C 187.796 164.976 187.306 164.555 187.014 164.368 L 186.484 164.028 L 186.504 163.12 C 186.517 162.538 186.482 162.113 186.408 161.939 C 186.125 161.278 186.643 161.622 186.984 162.321 C 187.209 162.782 187.45 162.903 187.565 162.61 C 187.6 162.522 187.645 162.111 187.668 161.697 C 187.69 161.282 187.717 160.943 187.727 160.943 C 187.737 160.943 187.834 161.117 187.943 161.331 Z M 173.466 161.284 C 173.398 161.371 173.272 161.523 173.185 161.621 C 173.097 161.719 172.889 162.077 172.72 162.416 C 172.42 163.021 172.433 163.203 172.767 163.041 C 173.886 162.498 175.131 162.355 176.182 162.649 L 176.73 162.801 L 176.284 162.919 C 176.039 162.984 175.644 163.038 175.408 163.041 C 175.171 163.043 174.956 163.081 174.928 163.126 C 174.901 163.171 174.724 163.229 174.535 163.254 C 174.017 163.323 173.456 163.482 172.977 163.694 C 172.303 163.994 171.732 164.27 171.683 164.322 C 171.658 164.348 171.514 164.43 171.364 164.504 C 170.969 164.701 170.158 165.303 169.662 165.771 C 169.246 166.162 169.095 166.138 169.307 165.715 C 169.351 165.628 169.48 165.351 169.593 165.1 C 169.848 164.532 170.685 163.288 171.062 162.913 C 171.682 162.3 172.394 161.738 173.006 161.381 C 173.501 161.092 173.639 161.063 173.466 161.284 Z M 177.287 167.352 C 178.744 167.887 180.007 169.21 180.662 170.885 C 180.893 171.477 180.513 171.5 179.879 170.934 C 179.183 170.311 178.414 170.128 177.415 170.347 C 177.203 170.393 176.784 170.482 176.483 170.544 C 175.958 170.652 174.16 171.098 173.535 171.276 C 173.372 171.322 173.104 171.397 172.942 171.442 C 172.624 171.53 171.441 171.908 170.056 172.364 C 169.586 172.519 169.125 172.621 169.03 172.591 C 168.705 172.489 168.481 172.096 168.475 171.618 C 168.456 170.146 170.249 168.964 173.234 168.481 C 173.816 168.387 176.134 168.418 176.854 168.53 C 177.224 168.587 177.55 168.611 177.577 168.583 C 177.648 168.511 177.166 167.893 176.796 167.583 C 176.244 167.121 176.426 167.036 177.287 167.352 Z M 167.136 171.998 C 167.214 172.662 167.465 173.17 167.941 173.625 C 168.276 173.946 168.294 173.991 168.276 174.467 C 168.265 174.743 168.254 174.996 168.251 175.029 C 168.247 175.062 168.028 175.118 167.763 175.154 C 167.499 175.189 167.243 175.249 167.192 175.285 C 166.939 175.471 166.774 175.455 166.555 175.224 C 166.299 174.952 166.32 174.832 166.624 174.832 C 166.737 174.832 166.903 174.78 166.99 174.715 C 167.135 174.608 167.121 174.584 166.83 174.447 C 166.437 174.261 166.078 173.809 165.941 173.327 C 165.811 172.874 165.932 172.346 166.255 171.956 C 166.512 171.645 166.916 171.351 167.009 171.408 C 167.043 171.429 167.101 171.694 167.136 171.998 Z M 182.018 172.365 C 182.182 172.365 182.342 172.406 182.373 172.456 C 182.405 172.507 182.53 172.548 182.65 172.548 C 182.77 172.548 182.894 172.589 182.926 172.639 C 182.957 172.689 183.064 172.73 183.163 172.73 C 183.261 172.73 183.414 172.769 183.502 172.816 C 183.59 172.863 183.973 173.011 184.353 173.143 C 185.213 173.444 185.223 173.449 186.288 173.94 C 186.769 174.163 187.402 174.444 187.693 174.566 C 187.983 174.687 188.222 174.838 188.224 174.901 C 188.226 175.025 187.713 175.064 187.66 174.943 C 187.623 174.859 186.464 174.295 185.738 174.008 C 185.46 173.898 185.139 173.771 185.025 173.726 C 184.911 173.681 184.703 173.598 184.564 173.541 C 184.425 173.484 184.208 173.397 184.081 173.347 C 183.954 173.298 183.778 173.221 183.69 173.177 C 183.602 173.132 183.454 173.096 183.361 173.096 C 183.268 173.096 183.162 173.067 183.126 173.032 C 183.046 172.953 182.061 172.643 181.872 172.638 C 181.659 172.631 181.384 172.389 181.455 172.272 C 181.501 172.196 181.548 172.194 181.62 172.266 C 181.676 172.32 181.855 172.365 182.018 172.365 Z M 177.256 172.527 C 177.809 172.962 178.13 173.978 178.148 175.341 C 178.162 176.515 178.021 177.104 177.603 177.617 C 177.322 177.962 176.55 178.395 176.216 178.395 C 176.11 178.395 175.983 178.432 175.936 178.478 C 175.821 178.587 175.224 178.668 174.092 178.728 L 173.156 178.777 L 172.652 178.372 C 172.376 178.15 171.906 177.872 171.609 177.755 C 171.313 177.639 170.992 177.478 170.895 177.398 C 170.693 177.231 170.277 176.371 170.274 176.114 C 170.272 176.018 170.23 175.914 170.179 175.883 C 170.014 175.783 170.057 174.722 170.237 174.42 C 170.383 174.177 170.851 173.886 171.502 173.633 C 171.616 173.589 171.8 173.515 171.913 173.469 C 172.026 173.423 172.2 173.364 172.301 173.338 C 172.401 173.312 172.709 173.223 172.986 173.141 C 173.778 172.903 174.726 172.682 175.475 172.56 C 175.714 172.521 175.936 172.461 175.971 172.427 C 176.102 172.294 177.054 172.368 177.256 172.527 Z M 164.12 172.958 C 164.499 173.115 164.518 173.138 164.848 173.89 L 165.096 174.454 L 164.719 174.514 C 164.301 174.579 163.144 174.948 162.663 175.168 C 162.224 175.37 161.677 175.428 161.51 175.29 C 161.22 175.053 161.405 174.125 161.835 173.663 C 162.14 173.335 162.61 173.075 163.121 172.95 C 163.737 172.801 163.742 172.801 164.12 172.958 Z M 181.371 173.698 C 181.538 174.118 181.375 175.605 181.053 176.599 C 180.812 177.342 180.321 178.348 179.952 178.852 C 179.568 179.378 178.47 180.498 178.055 180.786 C 177.843 180.934 177.67 181.088 177.67 181.128 C 177.671 181.169 177.971 181.226 178.336 181.256 C 179.052 181.313 180.394 181.636 180.592 181.798 C 180.769 181.943 180.567 182.048 180.111 182.05 C 179.909 182.051 179.58 182.094 179.378 182.145 C 178.617 182.341 178.053 182.527 178.01 182.599 C 177.985 182.64 178.234 182.798 178.562 182.95 C 178.89 183.103 179.353 183.359 179.589 183.519 C 180.184 183.924 181.241 184.921 181.713 185.524 C 182.37 186.361 183.192 187.994 183.037 188.151 C 183.006 188.182 182.825 188.06 182.635 187.88 C 182.052 187.329 180.494 186.671 180.28 186.886 C 180.238 186.929 180.352 187.154 180.533 187.388 C 180.898 187.857 181.471 188.985 181.579 189.45 C 181.655 189.777 181.669 189.778 181.092 189.392 C 180.672 189.112 179.905 188.904 179.29 188.904 C 178.724 188.904 178.597 189.066 179.014 189.254 C 179.431 189.443 180.189 190.217 180.416 190.686 C 180.684 191.243 180.711 191.91 180.483 192.422 C 180.305 192.823 179.709 193.416 179.378 193.521 C 179.176 193.585 179.175 193.593 179.341 193.713 C 179.557 193.869 180.387 193.877 180.886 193.727 C 181.092 193.665 181.44 193.44 181.664 193.223 C 181.924 192.972 182.101 192.863 182.159 192.92 C 182.311 193.07 182.295 195.285 182.137 195.825 C 181.867 196.749 181.46 197.469 180.817 198.163 C 180.025 199.015 179.225 199.545 178.202 199.89 C 177.149 200.246 175.474 200.336 174.154 200.106 C 173.202 199.94 171.92 199.466 171.433 199.098 C 171.262 198.97 171.1 198.865 171.071 198.865 C 170.978 198.865 171.029 199.936 171.145 200.411 C 171.207 200.666 171.229 200.905 171.193 200.941 C 171.063 201.072 169.744 200.301 168.756 199.518 C 168.538 199.346 168.335 199.23 168.304 199.261 C 168.274 199.291 168.26 199.631 168.274 200.016 C 168.312 201.066 168.632 202.379 169.17 203.696 C 169.321 204.067 169.423 204.393 169.397 204.42 C 169.37 204.447 169.254 204.427 169.14 204.375 C 169.026 204.323 168.664 204.162 168.336 204.017 C 168.008 203.872 167.415 203.513 167.018 203.22 C 165.095 201.797 164.326 199.949 164.633 197.489 C 164.705 196.914 164.785 196.367 164.811 196.274 C 164.852 196.134 164.825 196.116 164.655 196.171 C 164.542 196.207 164.24 196.36 163.985 196.511 C 163.326 196.902 162.947 196.935 162.582 196.633 C 161.965 196.121 162.14 195.438 163.145 194.423 C 165.577 191.968 170.023 190.593 174.981 190.763 C 176.621 190.82 178.2 190.931 179.148 191.058 C 179.448 191.098 179.629 191.089 179.629 191.032 C 179.627 190.95 178.819 190.545 178.106 190.269 C 176.65 189.704 173.333 189.338 171.543 189.544 C 169.571 189.771 169.561 189.771 169.204 189.533 C 168.783 189.253 168.456 188.603 168.266 187.671 C 168.1 186.852 168.059 185.412 168.177 184.525 C 168.219 184.202 168.231 183.901 168.202 183.855 C 168.126 183.734 167.775 184.306 167.561 184.898 C 167.075 186.248 167.016 187.671 167.377 189.381 C 167.571 190.304 167.553 190.351 166.903 190.597 C 166.665 190.686 166.214 190.877 165.898 191.02 C 165.584 191.163 165.307 191.28 165.282 191.28 C 165.258 191.28 164.785 191.553 164.232 191.886 C 163.292 192.453 163.212 192.485 162.994 192.37 C 162.669 192.197 162.592 192.017 162.435 191.065 C 162.194 189.61 162.266 187.726 162.614 186.392 C 162.666 186.191 162.739 185.903 162.777 185.752 C 162.815 185.601 162.973 185.197 163.127 184.855 C 163.282 184.512 163.409 184.21 163.409 184.183 C 163.409 184.157 163.492 184.016 163.594 183.87 C 163.841 183.519 164.176 183.523 164.616 183.881 C 165.307 184.443 166.127 184.588 166.686 184.245 C 167.071 184.009 167.059 183.902 166.636 183.823 C 165.821 183.671 165.32 183.138 165.311 182.414 C 165.304 181.872 165.476 181.444 165.843 181.091 C 166.109 180.836 166.175 180.818 166.789 180.826 C 167.603 180.837 167.889 180.977 168.163 181.497 C 168.28 181.718 168.413 181.902 168.46 181.906 C 168.506 181.91 168.548 181.604 168.553 181.226 C 168.56 180.739 168.617 180.431 168.749 180.167 C 169.133 179.395 169.929 178.956 170.711 179.085 C 171.516 179.218 171.819 179.516 172.032 180.383 C 172.262 181.32 171.938 182.172 171.151 182.697 L 170.682 183.01 L 171.065 183.038 C 171.594 183.077 172.305 182.754 172.686 182.304 C 172.953 181.989 173.105 181.668 173.464 180.665 C 173.574 180.359 173.839 180.254 174.816 180.133 C 176.311 179.947 177.349 179.642 177.996 179.196 C 178.468 178.871 179.1 178.029 179.288 177.473 C 179.589 176.583 179.627 176.393 179.626 175.785 C 179.626 174.854 179.761 174.476 180.174 174.261 C 180.362 174.163 180.584 173.964 180.669 173.818 C 180.842 173.52 181.271 173.446 181.371 173.698 Z M 176.998 174.205 C 176.923 174.312 176.774 174.631 176.665 174.913 C 176.457 175.452 175.905 176.332 175.485 176.796 C 175.349 176.947 175.236 177.095 175.237 177.125 C 175.237 177.155 175.135 177.298 175.011 177.444 C 174.504 178.041 174.97 178.387 175.892 178.099 C 176.091 178.037 176.255 177.954 176.255 177.916 C 176.254 177.878 176.316 177.847 176.393 177.847 C 176.728 177.847 177.428 176.464 177.42 175.82 C 177.417 175.635 177.457 175.457 177.507 175.426 C 177.641 175.343 177.599 174.357 177.455 174.17 C 177.291 173.958 177.161 173.968 176.998 174.205 Z M 190.919 175.375 C 192.049 175.801 192.844 177.866 192.597 179.738 C 192.297 182.025 191.864 183.349 191.179 184.077 C 190.772 184.508 190.396 184.543 189.932 184.194 C 189.594 183.939 189.546 183.78 189.757 183.604 C 189.832 183.541 189.955 183.268 190.03 182.998 C 190.227 182.293 190.035 181.682 189.452 181.158 C 188.992 180.745 188.959 180.63 189.174 180.165 C 189.43 179.612 189.817 179.57 190.142 180.059 C 190.348 180.369 190.689 181.293 190.692 181.549 C 190.696 181.878 190.936 181.741 191.069 181.335 C 191.241 180.803 191.184 179.854 190.943 179.231 C 190.757 178.75 190.745 178.654 190.851 178.437 C 190.917 178.301 191.132 178.1 191.329 177.991 C 191.526 177.881 191.7 177.753 191.715 177.705 C 191.756 177.579 191.033 177.171 190.518 177.029 C 190.231 176.95 189.809 176.925 189.302 176.956 C 188.445 177.009 188.431 176.999 188.652 176.457 C 188.821 176.042 189.244 175.594 189.622 175.429 C 189.972 175.276 190.59 175.251 190.919 175.375 Z M 165.599 176.545 C 165.665 176.683 165.758 176.868 165.803 176.955 C 165.849 177.042 165.888 177.291 165.891 177.508 C 165.894 177.725 165.944 177.95 166.004 178.009 C 166.087 178.09 166.089 178.199 166.012 178.461 C 165.956 178.651 165.896 178.909 165.878 179.035 C 165.861 179.161 165.838 179.052 165.828 178.794 C 165.81 178.347 165.722 178.213 165.444 178.213 C 165.403 178.213 165.206 178.552 165.006 178.967 C 164.487 180.044 164.382 180.205 163.802 180.817 C 163.517 181.119 163.284 181.414 163.284 181.473 C 163.283 181.531 163.408 181.607 163.56 181.64 C 164.166 181.772 163.744 182.135 162.981 182.139 C 161.958 182.145 161.517 181.891 161.079 181.046 C 160.961 180.819 160.829 180.563 160.783 180.476 C 160.738 180.388 160.7 180.214 160.698 180.087 C 160.696 179.961 160.654 179.858 160.604 179.858 C 160.55 179.858 160.51 179.548 160.507 179.104 L 160.5 178.35 L 160.902 178.033 C 161.407 177.634 161.821 177.404 162.631 177.071 C 162.982 176.926 163.311 176.782 163.36 176.75 C 163.411 176.718 163.637 176.636 163.862 176.568 C 164.088 176.5 164.312 176.411 164.359 176.369 C 164.407 176.328 164.677 176.294 164.962 176.294 C 165.436 176.294 165.488 176.314 165.599 176.545 Z M 168.52 176.513 C 168.798 176.656 169.188 177.295 169.193 177.616 C 169.194 177.753 169.055 177.941 168.791 178.158 C 168.531 178.373 168.286 178.702 168.103 179.083 C 167.808 179.696 167.662 179.786 167.375 179.53 C 167.23 179.401 167.216 179.252 167.248 178.182 C 167.268 177.52 167.322 176.904 167.368 176.812 C 167.451 176.647 167.916 176.396 168.15 176.389 C 168.216 176.387 168.382 176.443 168.52 176.513 Z M 170.069 180.315 C 169.576 180.62 169.33 181.558 169.773 181.442 C 169.861 181.419 170.089 181.506 170.28 181.634 C 170.472 181.763 170.658 181.868 170.694 181.867 C 170.837 181.864 171.182 181.183 171.186 180.893 C 171.196 180.303 170.592 179.99 170.069 180.315 Z M 166.364 181.807 C 165.977 182.199 166.118 182.768 166.673 183.05 C 166.922 183.176 167.062 183.111 167.059 182.868 C 167.057 182.771 167.198 182.532 167.372 182.338 C 167.68 181.994 167.682 181.982 167.509 181.828 C 167.412 181.741 167.167 181.648 166.965 181.621 C 166.656 181.58 166.561 181.609 166.364 181.807 Z M 197.398 182.092 C 197.513 182.209 197.521 183.287 197.409 183.514 C 197.359 183.614 197.279 183.778 197.23 183.877 C 197.088 184.166 197.124 184.269 197.483 184.61 C 197.77 184.881 198.426 186.036 198.341 186.119 C 198.325 186.134 198.045 185.901 197.718 185.602 C 196.89 184.845 196.749 184.908 196.938 185.947 C 196.976 186.154 196.969 186.393 196.923 186.478 C 196.855 186.602 196.781 186.519 196.527 186.031 C 196.355 185.702 196.179 185.432 196.136 185.432 C 196.093 185.432 196.058 185.379 196.057 185.315 C 196.056 185.25 195.876 185.01 195.656 184.782 C 195.261 184.37 195.259 184.365 195.402 184.1 C 195.618 183.699 195.766 183.059 195.776 182.479 C 195.781 182.194 195.806 181.961 195.831 181.96 C 195.857 181.96 195.933 182.093 196.001 182.257 C 196.069 182.42 196.165 182.625 196.213 182.712 C 196.261 182.799 196.302 182.992 196.304 183.141 C 196.306 183.289 196.346 183.435 196.393 183.464 C 196.601 183.591 197.184 182.373 197.216 181.743 C 197.224 181.578 197.233 181.584 197.269 181.777 C 197.294 181.902 197.352 182.044 197.398 182.092 Z M 171.178 193.339 C 169.737 193.521 168.771 193.796 167.571 194.365 C 166.839 194.712 166.082 195.239 166.18 195.334 C 166.274 195.427 167.567 195.401 168.172 195.295 C 169.894 194.993 171.209 194.612 172.562 194.025 C 173.967 193.415 174.057 193.355 173.721 193.254 C 173.468 193.179 172.085 193.225 171.178 193.339 Z" fill="black" style="" transform="matrix(0.999829, 0.01847, -0.01847, 0.999829, 3.39131, -3.288467)"/>
</svg>