<?xml version="1.0" encoding="utf-8"?>
<svg viewBox="108.259 30.89 253.607 195.898" xmlns="http://www.w3.org/2000/svg">
  <g transform="matrix(0.09703, -0.024192, -0.024192, -0.09703, 97.776161, 247.754471)" fill="#000000" stroke="none">
    <path d="M490 1000 l0 -240 180 0 180 0 0 -215 0 -215 945 0 945 0 0 220 0 220 -190 0 -190 0 0 235 0 235 -935 0 -935 0 0 -240z m289 142 c56 -28 76 -64 76 -137 -1 -111 -54 -155 -187 -155 l-78 0 0 148 c0 82 3 152 7 155 14 15 148 7 182 -11z m340 0 c55 -28 66 -97 22 -141 -19 -19 -18 -21 25 -85 l44 -66 -53 0 -53 0 -29 55 c-17 30 -33 55 -37 55 -5 0 -8 -25 -8 -55 l0 -55 -45 0 -45 0 0 155 0 155 73 0 c49 0 83 -6 106 -18z m231 -83 c0 -107 9 -139 40 -139 41 0 50 25 50 136 l0 104 46 0 46 0 -4 -117 c-6 -164 -27 -194 -135 -194 -61 0 -98 19 -120 62 -8 15 -13 67 -13 137 l0 112 45 0 45 0 0 -101z m429 9 l51 -93 0 93 0 92 40 0 40 0 0 -155 0 -156 -56 3 -57 3 -47 88 c-26 48 -49 89 -51 91 -2 3 -3 -38 -1 -90 l3 -94 -40 0 -41 0 0 155 0 155 54 0 55 0 50 -92z m311 36 c0 -65 10 -63 57 12 27 42 30 44 76 44 26 0 47 -3 47 -6 0 -3 -21 -34 -46 -69 l-45 -64 46 -86 47 -85 -51 0 -51 0 -27 55 c-15 30 -32 54 -38 52 -5 -2 -11 -27 -13 -55 l-3 -52 -45 0 -44 0 0 148 c0 82 3 152 7 155 3 4 24 7 45 7 l38 0 0 -56z m640 -554 l0 -210 -935 0 -935 0 0 210 0 210 935 0 935 0 0 -210z"/>
    <path d="M687 1083 c-10 -10 -8 -151 2 -157 19 -12 59 13 69 44 12 34 6 84 -12 99 -17 13 -52 22 -59 14z"/>
    <path d="M1030 1060 c0 -23 5 -30 19 -30 20 0 37 32 26 50 -3 5 -15 10 -26 10 -14 0 -19 -7 -19 -30z"/>
    <path d="M960 546 l0 -126 30 0 30 0 1 78 1 77 25 -77 c24 -76 25 -78 57 -78 32 0 32 1 53 78 l21 77 1 -78 1 -78 33 3 32 3 3 123 3 122 -50 0 c-45 0 -49 -2 -56 -27 -19 -79 -38 -134 -43 -128 -4 4 -16 39 -27 78 l-21 72 -47 3 -47 3 0 -125z"/>
    <path d="M1367 659 c-67 -39 -61 -196 10 -228 39 -18 107 -13 136 9 55 43 60 154 10 204 -22 22 -35 26 -82 26 -31 0 -64 -5 -74 -11z m93 -49 c24 -13 35 -66 21 -103 -8 -21 -17 -27 -40 -27 -49 0 -69 69 -35 118 17 25 27 27 54 12z"/>
    <path d="M1630 545 l0 -125 30 0 30 0 1 83 0 82 42 -82 41 -83 48 0 48 0 0 125 0 125 -30 0 -29 0 -3 -82 -3 -83 -43 83 -42 82 -45 0 -45 0 0 -125z"/>
    <path d="M1950 545 l0 -125 29 0 c28 0 30 3 33 42 2 23 8 43 13 45 6 2 21 -17 34 -42 22 -42 27 -45 63 -45 l39 0 -38 69 -37 69 37 56 37 56 -39 0 c-36 0 -42 -4 -68 -45 -15 -25 -31 -45 -35 -45 -5 0 -8 20 -8 45 0 43 -1 45 -30 45 l-30 0 0 -125z"/>
    <path d="M2210 545 l0 -125 75 0 75 0 0 30 c0 28 -2 30 -40 30 -33 0 -40 3 -40 19 0 16 8 20 38 23 32 3 37 7 40 31 3 26 1 27 -38 27 -34 0 -41 3 -38 18 2 12 14 18 41 20 32 3 37 7 37 28 0 23 -2 24 -75 24 l-75 0 0 -125z"/>
    <path d="M2410 663 c0 -5 18 -41 40 -81 30 -54 40 -85 40 -118 0 -42 1 -44 30 -44 29 0 30 2 30 44 0 33 10 64 40 118 22 40 40 76 40 81 0 4 -16 7 -35 7 -32 0 -37 -4 -51 -40 -9 -22 -20 -40 -24 -40 -4 0 -14 18 -23 40 -14 36 -19 40 -51 40 -20 0 -36 -3 -36 -7z"/>
  </g>
</svg>